<svg width="32" height="32" viewBox="0 0 32 32" fill="none" xmlns="http://www.w3.org/2000/svg">
<path d="M13.892 24.123H17.249V15.999H19.488L19.785 13.2H17.249L17.252 11.798C17.252 11.068 17.322 10.677 18.369 10.677H19.769V7.87701H17.529C14.839 7.87701 13.892 9.23501 13.892 11.519V13.2H12.215V16H13.892V24.123Z" fill="#414752"/>
<path d="M16 1C24.271 1 31 7.729 31 16C31 24.271 24.271 31 16 31C7.729 31 1 24.271 1 16C1 7.729 7.729 1 16 1ZM16 0C7.163 0 0 7.163 0 16C0 24.837 7.163 32 16 32C24.837 32 32 24.837 32 16C32 7.163 24.837 0 16 0Z" fill="#414752"/>
</svg>
