<svg width="32" height="32" viewBox="0 0 32 32" fill="none" xmlns="http://www.w3.org/2000/svg">
<path d="M23.605 14.516C23.704 15.045 23.758 15.6 23.758 16.178C23.758 20.7 20.73 23.917 16.158 23.917C11.784 23.917 8.24103 20.374 8.24103 16C8.24103 11.626 11.784 8.08301 16.158 8.08301C18.296 8.08301 20.082 8.87001 21.452 10.146L19.22 12.378V12.373C18.389 11.581 17.335 11.176 16.158 11.176C13.546 11.176 11.423 13.383 11.423 15.995C11.423 18.607 13.546 20.819 16.158 20.819C18.528 20.819 20.141 19.463 20.473 17.603H16.158V14.515L23.605 14.516Z" fill="#414752"/>
<path d="M16 1C24.271 1 31 7.729 31 16C31 24.271 24.271 31 16 31C7.729 31 1 24.271 1 16C1 7.729 7.729 1 16 1ZM16 0C7.164 0 0 7.163 0 16C0 24.837 7.164 32 16 32C24.836 32 32 24.837 32 16C32 7.163 24.837 0 16 0Z" fill="#414752"/>
</svg>
