<svg width="32" height="32" viewBox="0 0 32 32" fill="none" xmlns="http://www.w3.org/2000/svg">
<path d="M18.014 9.564C16.575 10.087 15.666 11.438 15.77 12.915L15.805 13.485L15.229 13.415C13.135 13.147 11.304 12.24 9.75001 10.715L8.99001 9.95899L8.79401 10.518C8.38001 11.763 8.64501 13.078 9.50801 13.963C9.96801 14.452 9.86401 14.522 9.07101 14.231C8.79501 14.138 8.55301 14.068 8.53001 14.103C8.45001 14.185 8.72601 15.243 8.94401 15.662C9.24301 16.244 9.85301 16.814 10.521 17.152L11.085 17.42L10.418 17.432C9.77401 17.432 9.75101 17.444 9.82001 17.689C10.05 18.445 10.959 19.248 11.972 19.598L12.686 19.842L12.065 20.214C11.1252 20.7553 10.0643 21.0513 8.98001 21.075C8.46101 21.087 8.03601 21.133 8.03601 21.168C8.03601 21.284 9.44101 21.935 10.257 22.192C12.708 22.948 15.621 22.622 17.808 21.331C19.362 20.411 20.915 18.585 21.641 16.815C22.033 15.873 22.424 14.15 22.424 13.325C22.424 12.789 22.459 12.72 23.103 12.08C23.483 11.708 23.84 11.301 23.909 11.184C24.024 10.963 24.012 10.963 23.426 11.16C22.448 11.509 22.309 11.463 22.793 10.939C23.149 10.567 23.576 9.892 23.576 9.694C23.576 9.659 23.404 9.71699 23.207 9.82199C23 9.93799 22.54 10.113 22.194 10.217L21.573 10.415L21.009 10.03C20.698 9.821 20.261 9.58799 20.031 9.51799C19.442 9.35499 18.544 9.378 18.014 9.564Z" fill="#414752"/>
<path d="M16 1C24.271 1 31 7.729 31 16C31 24.271 24.271 31 16 31C7.729 31 1 24.271 1 16C1 7.729 7.729 1 16 1ZM16 0C7.163 0 0 7.164 0 16C0 24.836 7.163 32 16 32C24.837 32 32 24.836 32 16C32 7.164 24.837 0 16 0Z" fill="#414752"/>
</svg>
