<svg width="32" height="32" viewBox="0 0 32 32" fill="none" xmlns="http://www.w3.org/2000/svg">
<path d="M16 1C24.271 1 31 7.729 31 16C31 24.271 24.271 31 16 31C7.729 31 1 24.271 1 16C1 7.729 7.729 1 16 1ZM16 0C7.163 0 0 7.163 0 16C0 24.837 7.163 32 16 32C24.837 32 32 24.837 32 16C32 7.163 24.837 0 16 0Z" fill="#414752"/>
<path fill-rule="evenodd" clip-rule="evenodd" d="M24.8502 11.5438C24.6111 11.3668 23.7518 11.3668 22.9014 11.3668C22.0331 11.3845 21.1646 11.3845 20.9608 11.4643C20.7753 11.5351 20.3587 12.5451 19.8185 13.5813C19.1978 14.7513 18.4453 15.8851 17.9666 15.8668C17.3378 15.8668 17.4886 13.9445 17.5328 12.5186C17.5413 11.588 17.3908 11.2866 17.2579 11.2075C16.9301 10.9768 16.0267 10.7559 16.0267 10.7559C16.0267 10.7559 13.3152 10.5517 12.9347 11.7212C13.4572 11.7922 14.3433 11.6322 13.9977 15.2556C13.9712 15.4332 13.5812 16.9213 12.3232 14.9101C12.0042 14.4056 10.7997 11.3845 10.3744 11.3668C8.98285 11.34 7.6014 11.2781 7.12341 11.5438C6.67121 11.8098 7.72544 13.8826 9.50633 16.6648C10.9499 18.9502 12.4828 20.7224 15.1406 21.165C15.6455 21.2187 16.9393 21.2711 17.3558 21.0767C17.6299 20.9435 17.2845 18.9771 18.2326 18.7817C18.6491 18.7023 20.2698 20.8375 20.881 21.0767C21.254 21.2272 22.0687 21.2891 22.9014 21.2533C23.8051 21.2271 24.8322 21.3424 24.9297 20.7223C25.1515 19.3667 22.193 17.5943 22.1129 16.7619C22.0419 16.1595 23.1939 15.0523 23.7783 14.2016C24.5044 13.1739 25.3024 11.9338 24.8502 11.5438Z" fill="#414752"/>
</svg>
